<?xml version="1.0" encoding="UTF-8" standalone="no"?>
<svg
   xmlns:dc="http://purl.org/dc/elements/1.1/"
   xmlns:cc="http://creativecommons.org/ns#"
   xmlns:rdf="http://www.w3.org/1999/02/22-rdf-syntax-ns#"
   xmlns:svg="http://www.w3.org/2000/svg"
   xmlns="http://www.w3.org/2000/svg"
   xmlns:sodipodi="http://sodipodi.sourceforge.net/DTD/sodipodi-0.dtd"
   xmlns:inkscape="http://www.inkscape.org/namespaces/inkscape"
   viewBox="0 0 542.41425 716.59998"
   enable-background="new 0 0 800 907"
   version="1.1"
   id="svg57"
   sodipodi:docname="ffmerge.svg"
   width="542.41425"
   height="716.59998"
   inkscape:version="0.92.5 (2060ec1f9f, 2020-04-08)">
  <metadata
     id="metadata63">
    <rdf:RDF>
      <cc:Work
         rdf:about="">
        <dc:format>image/svg+xml</dc:format>
        <dc:type
           rdf:resource="http://purl.org/dc/dcmitype/StillImage" />
      </cc:Work>
    </rdf:RDF>
  </metadata>
  <defs
     id="defs61" />
  <sodipodi:namedview
     pagecolor="#ffffff"
     bordercolor="#666666"
     borderopacity="1"
     objecttolerance="10"
     gridtolerance="10"
     guidetolerance="10"
     inkscape:pageopacity="0"
     inkscape:pageshadow="2"
     inkscape:window-width="3840"
     inkscape:window-height="2032"
     id="namedview59"
     showgrid="false"
     inkscape:zoom="2.0815876"
     inkscape:cx="189.29848"
     inkscape:cy="295.4678"
     inkscape:window-x="0"
     inkscape:window-y="54"
     inkscape:window-maximized="1"
     inkscape:current-layer="svg57">
    <inkscape:grid
       type="xygrid"
       id="grid870"
       originx="-128.79288"
       originy="-119.6" />
  </sodipodi:namedview>
  <style
     type="text/css"
     id="style2">.st0{display:none;} .st1{display:inline;} .st2{fill:#FFFFFF;} .st3{fill:none;stroke:#9882CE;stroke-width:4;stroke-miterlimit:10;} .st4{fill:#FFFFFF;stroke:#404040;stroke-width:4;stroke-linecap:round;stroke-linejoin:round;stroke-miterlimit:10;} .st5{fill:#FFFFFF;stroke:#404040;stroke-width:4;stroke-miterlimit:10;} .st6{fill:#B3E3FF;stroke:#404040;stroke-width:4;stroke-miterlimit:10;} .st7{fill:#B18BE8;stroke:#404040;stroke-width:4;stroke-miterlimit:10;} .st8{fill:#FFFFFF;stroke:#404040;stroke-width:6;stroke-miterlimit:10;} .st9{fill:#B3E3FF;stroke:#404040;stroke-width:6;stroke-miterlimit:10;} .st10{fill:#404040;} .st11{fill:none;stroke:#404040;stroke-width:4;stroke-linecap:round;stroke-linejoin:round;stroke-miterlimit:10;} .st12{fill:#B18BE8;stroke:#404040;stroke-width:4;stroke-linecap:round;stroke-linejoin:round;stroke-miterlimit:10;} .st13{fill:#444444;} .st14{fill:none;stroke:#404040;stroke-width:4;stroke-miterlimit:10;} .st15{fill:#4ED1A1;stroke:#404040;stroke-width:4;stroke-miterlimit:10;} .st16{fill:none;stroke:#CCCCCC;stroke-width:7;stroke-linecap:round;stroke-linejoin:round;stroke-miterlimit:10;} .st17{fill:#FFFFFF;stroke:#CCCCCC;stroke-width:7;stroke-linecap:round;stroke-linejoin:round;stroke-miterlimit:10;} .st18{fill:none;stroke:#404040;stroke-width:7;stroke-miterlimit:10;} .st19{fill:#B3E3FF;stroke:#404040;stroke-width:7;stroke-miterlimit:10;} .st20{fill:none;stroke:#CCCCCC;stroke-width:8;stroke-linecap:round;stroke-miterlimit:10;} .st21{fill:none;stroke:#404040;stroke-width:8;stroke-linecap:round;stroke-miterlimit:10;} .st22{fill:#FFFFFF;stroke:#404040;stroke-width:4;stroke-linejoin:round;stroke-miterlimit:10;} .st23{fill:#B3E3FF;stroke:#404040;stroke-width:4;stroke-linejoin:round;stroke-miterlimit:10;} .st24{fill:none;stroke:#CCCCCC;stroke-linecap:round;stroke-linejoin:round;stroke-miterlimit:10;} .st25{fill:#999999;} .st26{fill:#4ED1A1;stroke:#404040;stroke-width:4;stroke-linecap:round;stroke-linejoin:round;stroke-miterlimit:10;} .st27{fill:#4CD3D6;stroke:#404040;stroke-width:4;stroke-linejoin:round;stroke-miterlimit:10;} .st28{fill:none;stroke:#59AFE1;stroke-width:4;stroke-miterlimit:10;} .st29{fill:#59AFE1;stroke:#404040;stroke-width:4;stroke-linejoin:round;stroke-miterlimit:10;} .st30{fill:none;stroke:#404040;stroke-width:8;stroke-linecap:round;stroke-linejoin:round;stroke-miterlimit:10;stroke-dasharray:0,30;} .st31{fill:#FFFFFF;stroke:#59AFE1;stroke-width:4;stroke-miterlimit:10;} .st32{fill:#FC8363;stroke:#404040;stroke-width:4;stroke-linecap:round;stroke-linejoin:round;stroke-miterlimit:10;} .st33{fill:#CCCCCC;stroke:#404040;stroke-width:4;stroke-miterlimit:10;} .st34{fill:#FFFFFF;stroke:#6693ED;stroke-width:4;stroke-miterlimit:10;} .st35{fill:none;stroke:#A97CDD;stroke-width:4;stroke-linecap:round;stroke-linejoin:round;stroke-miterlimit:10;} .st36{fill:none;stroke:#B3E3FF;stroke-width:4;stroke-linecap:round;stroke-linejoin:round;stroke-miterlimit:10;} .st37{fill:none;stroke:#4ED1A1;stroke-width:4;stroke-linecap:round;stroke-miterlimit:10;} .st38{fill:none;stroke:#4ED1A1;stroke-width:4;stroke-linecap:round;stroke-linejoin:round;stroke-miterlimit:10;} .st39{fill:#E24B88;stroke:#404040;stroke-width:4;stroke-linecap:round;stroke-linejoin:round;stroke-miterlimit:10;} .st40{fill:none;stroke:#DEEFF8;stroke-width:4;stroke-miterlimit:10;} .st41{fill:none;stroke:#CCCCCC;stroke-width:4;stroke-linecap:round;stroke-linejoin:round;} .st42{fill:none;stroke:#CCCCCC;stroke-width:4;stroke-linecap:round;stroke-linejoin:round;stroke-dasharray:0,14.3051;} .st43{fill:none;stroke:#CCCCCC;stroke-width:4;stroke-linecap:round;stroke-linejoin:round;stroke-dasharray:0,14.1689;} .st44{fill:none;stroke:#CCCCCC;stroke-width:4;stroke-linecap:round;stroke-linejoin:round;stroke-dasharray:0,13.9788;} .st45{fill:none;stroke:#CCCCCC;stroke-width:4;stroke-linecap:round;stroke-linejoin:round;stroke-dasharray:0,14.7877;} .st46{fill:none;stroke:#CCCCCC;stroke-width:4;stroke-linecap:round;stroke-linejoin:round;stroke-dasharray:0,14.9632;} .st47{fill:#B3E3FF;stroke:#404040;stroke-width:4;stroke-linecap:round;stroke-linejoin:round;stroke-miterlimit:10;} .st48{fill:none;stroke:#CCCCCC;stroke-width:4;stroke-linecap:round;stroke-linejoin:round;stroke-dasharray:0,12.543;} .st49{fill:none;stroke:#CCCCCC;stroke-width:4;stroke-linecap:round;stroke-linejoin:round;stroke-dasharray:0,13.6844;} .st50{fill:none;stroke:#CCCCCC;stroke-width:4;stroke-linecap:round;stroke-linejoin:round;stroke-dasharray:0,13.7717;} .st51{fill:none;stroke:#CCCCCC;stroke-width:4;stroke-linecap:round;stroke-linejoin:round;stroke-dasharray:0,13.6492;} .st52{fill:none;stroke:#CCCCCC;stroke-width:4;stroke-linecap:round;stroke-linejoin:round;stroke-dasharray:0,13.907;} .st53{fill:#4CD3D6;stroke:#404040;stroke-width:4;stroke-linecap:round;stroke-linejoin:round;stroke-miterlimit:10;} .st54{fill:none;stroke:#CCCCCC;stroke-width:4;stroke-linecap:round;stroke-linejoin:round;stroke-dasharray:0,14.9858;} .st55{fill:none;stroke:#CCCCCC;stroke-width:4;stroke-linecap:round;stroke-linejoin:round;stroke-dasharray:0,14.0118;} .st56{fill:none;stroke:#CCCCCC;stroke-width:4;stroke-linecap:round;stroke-linejoin:round;stroke-dasharray:0,14.1243;} .st57{fill:none;} .st58{fill:#FFFFFF;stroke:#404040;stroke-width:7;stroke-linecap:round;stroke-linejoin:round;stroke-miterlimit:10;} .st59{fill:#59AFE1;stroke:#404040;stroke-width:7;stroke-linejoin:round;stroke-miterlimit:10;} .st60{fill:#E24B88;stroke:#404040;stroke-width:7;stroke-linecap:round;stroke-linejoin:round;stroke-miterlimit:10;} .st61{fill:none;stroke:#404040;stroke-width:7;stroke-linecap:round;stroke-linejoin:round;stroke-miterlimit:10;} .st62{fill:none;stroke:#CCCCCC;stroke-width:4;stroke-linecap:round;stroke-linejoin:round;stroke-miterlimit:10;} .st63{fill:#FFFFFF;stroke:#CCCCCC;stroke-width:4;stroke-linecap:round;stroke-linejoin:round;stroke-miterlimit:10;} .st64{fill:#F5F5F5;} .st65{fill:#3873AE;} .st66{fill:#75706C;} .st67{fill:none;stroke:#B3E3FF;stroke-width:4;stroke-miterlimit:10;} .st68{fill:#6F6F6F;} .st69{fill:none;stroke:#6F6F6F;stroke-width:2;stroke-miterlimit:10;} .st70{fill:none;stroke:#6F6F6F;stroke-width:3;stroke-miterlimit:10;}</style>
  <path
     style="fill:none;stroke:#cccccc;stroke-linecap:round;stroke-linejoin:round;stroke-miterlimit:10"
     inkscape:connector-curvature="0"
     id="path26"
     d="M 0.50712124,332.3 H 541.90712"
     class="st24" />
  <path
     style="fill:#b3e3ff;stroke:#404040;stroke-width:4;stroke-linejoin:round;stroke-miterlimit:10"
     inkscape:connector-curvature="0"
     id="path4"
     d="m 144.70712,138.1 h 96.2 v 50 h -96.2 z"
     class="st23" />
  <path
     style="fill:#404040"
     inkscape:connector-curvature="0"
     id="path6"
     d="m 179.40712,169.1 v -8.3 l -3.6,8.3 h -1.3 l -3.6,-8.3 v 8.3 h -1.5 v -10.6 h 2 l 3.7,8.7 3.8,-8.7 h 2 v 10.6 z m 6.4,-4.2 1.9,-0.3 c 0.4,-0.1 0.6,-0.3 0.6,-0.5 0,-0.7 -0.5,-1.3 -1.6,-1.3 -1,0 -1.5,0.6 -1.6,1.5 l -1.4,-0.3 c 0.2,-1.4 1.4,-2.3 3,-2.3 2.2,0 3,1.2 3,2.6 v 3.6 c 0,0.6 0.1,1 0.1,1.2 h -1.4 c 0,-0.2 -0.1,-0.5 -0.1,-1 -0.3,0.5 -1,1.2 -2.3,1.2 -1.5,0 -2.4,-1 -2.4,-2.2 0,-1.3 1,-2 2.2,-2.2 z m 2.5,1.1 v -0.3 l -2.2,0.3 c -0.6,0.1 -1,0.4 -1,1.1 0,0.5 0.4,1 1.2,1 1.1,0 2,-0.5 2,-2.1 z m 5,0.7 c 0.1,0.8 0.7,1.3 1.7,1.3 0.8,0 1.2,-0.5 1.2,-1 0,-0.5 -0.3,-0.8 -0.9,-0.9 l -1.2,-0.3 c -1.1,-0.2 -1.8,-1 -1.8,-2 0,-1.2 1.2,-2.3 2.6,-2.3 2,0 2.6,1.3 2.7,1.9 l -1.2,0.5 c -0.1,-0.4 -0.4,-1.2 -1.5,-1.2 -0.7,0 -1.2,0.5 -1.2,1 0,0.4 0.3,0.8 0.8,0.9 l 1.2,0.3 c 1.3,0.3 2,1.1 2,2.1 0,1 -0.9,2.2 -2.6,2.2 -2,0 -2.8,-1.3 -2.9,-2.1 z m 8.8,-4.8 h 1.6 v 1.3 h -1.6 v 3.8 c 0,0.7 0.3,1 1,1 0.2,0 0.4,0 0.6,-0.1 v 1.2 c -0.1,0 -0.5,0.1 -1,0.1 -1.2,0 -2,-0.8 -2,-2.1 v -4 h -1.4 v -1.3 h 0.4 c 0.8,0 1.1,-0.5 1.1,-1.1 v -1.2 h 1.3 z m 10.4,5.1 c -0.4,1.3 -1.6,2.3 -3.2,2.3 -1.9,0 -3.6,-1.4 -3.6,-3.9 0,-2.3 1.6,-3.8 3.4,-3.8 2.2,0 3.5,1.5 3.5,3.8 v 0.4 h -5.4 c 0,1.3 1,2.2 2.2,2.2 1.2,0 1.8,-0.6 2,-1.5 z m -1.4,-2.3 c 0,-1 -0.7,-1.8 -2,-1.8 -1.2,0 -1.9,0.9 -2,1.8 z m 8,-1.4 h -0.6 c -1.2,0 -2,0.6 -2,2.2 v 3.6 h -1.4 v -7.2 h 1.4 v 1.3 c 0.5,-1.1 1.4,-1.4 2.2,-1.4 h 0.5 v 1.5 z"
     class="st10" />
  <path
     style="fill:none;stroke:#404040;stroke-width:4;stroke-linecap:round;stroke-linejoin:round;stroke-miterlimit:10"
     inkscape:connector-curvature="0"
     id="path8"
     d="m 192.80712,233.7 v -23.5 m 10.8,14.8 -10.8,10.9 -10.9,-10.9 m 305.2,-28.4 h -83 41.2 m -154.9,41 c 0,22.6 -18.4,41 -41,41 h -202.2 m 243.2,-41 c 0,-22.6 18.4,-41 41,-41 h 30.7"
     class="st11" />
  <circle
     style="fill:#59afe1;stroke:#404040;stroke-width:4;stroke-linejoin:round;stroke-miterlimit:10"
     id="circle10"
     r="21"
     cy="278.59998"
     cx="192.80713"
     class="st29" />
  <circle
     style="fill:#ffffff;stroke:#404040;stroke-width:4;stroke-linecap:round;stroke-linejoin:round;stroke-miterlimit:10"
     id="circle12"
     r="21"
     cy="196.59999"
     cx="383.10712"
     class="st4" />
  <circle
     style="fill:#ffffff;stroke:#404040;stroke-width:4;stroke-linecap:round;stroke-linejoin:round;stroke-miterlimit:10"
     id="circle14"
     r="21"
     cy="196.59999"
     cx="466.3071"
     class="st4" />
  <circle
     style="fill:#ffffff;stroke:#404040;stroke-width:4;stroke-linecap:round;stroke-linejoin:round;stroke-miterlimit:10"
     id="circle16"
     r="21"
     cy="278.59998"
     cx="109.50713"
     class="st4" />
  <circle
     style="fill:#ffffff;stroke:#404040;stroke-width:4;stroke-linecap:round;stroke-linejoin:round;stroke-miterlimit:10"
     id="circle18"
     r="21"
     cy="278.59998"
     cx="26.307127"
     class="st4" />
  <path
     style="fill:#b18be8;stroke:#404040;stroke-width:4;stroke-linecap:round;stroke-linejoin:round;stroke-miterlimit:10"
     inkscape:connector-curvature="0"
     id="path20"
     d="m 395.50712,60.7 h 141.6 v 50 h -141.6 z"
     class="st12" />
  <path
     style="fill:#404040"
     inkscape:connector-curvature="0"
     id="path22"
     d="m 423.30712,84 c -0.1,-0.8 -0.8,-1.8 -2.2,-1.8 -1.2,0 -2.1,0.8 -2.1,1.8 0,0.8 0.5,1.3 1.4,1.5 l 1.6,0.3 c 1.8,0.4 2.8,1.5 2.8,3 0,1.6 -1.4,3.1 -3.7,3.1 -2.6,0 -3.8,-1.6 -4,-3.2 l 1.4,-0.4 c 0.1,1.2 0.9,2.3 2.5,2.3 1.5,0 2.2,-0.8 2.2,-1.7 0,-0.8 -0.5,-1.4 -1.6,-1.7 l -1.5,-0.3 c -1.5,-0.3 -2.6,-1.3 -2.6,-2.9 0,-1.7 1.5,-3.2 3.5,-3.2 2.4,0 3.4,1.5 3.6,2.6 z m 10.7,4.1 c 0,2.2 -1.5,3.8 -3.7,3.8 -2.2,0 -3.7,-1.6 -3.7,-3.8 0,-2.2 1.5,-3.8 3.7,-3.8 2.2,0 3.7,1.6 3.7,3.8 z m -1.4,0 c 0,-1.7 -1.1,-2.6 -2.2,-2.6 -1.1,0 -2.2,0.9 -2.2,2.6 0,1.7 1.1,2.6 2.2,2.6 1.1,0 2.2,-0.9 2.2,-2.6 z m 3.9,3.6 v -7.2 h 1.3 v 1 c 0.5,-0.8 1.4,-1.2 2.2,-1.2 0.9,0 1.8,0.4 2.2,1.4 0.6,-1 1.5,-1.4 2.4,-1.4 1.3,0 2.5,0.9 2.5,2.7 v 4.7 h -1.4 v -4.5 c 0,-0.9 -0.5,-1.6 -1.5,-1.6 -1,0 -1.7,0.8 -1.7,1.8 v 4.4 h -1.3 v -4.6 c 0,-0.9 -0.4,-1.6 -1.5,-1.6 -1,0 -1.7,0.8 -1.7,1.8 v 4.3 z m 19.9,-2 c -0.4,1.3 -1.6,2.3 -3.2,2.3 -1.9,0 -3.6,-1.4 -3.6,-3.9 0,-2.3 1.6,-3.8 3.4,-3.8 2.2,0 3.5,1.5 3.5,3.8 v 0.5 h -5.4 c 0,1.3 1,2.2 2.2,2.2 1.2,0 1.8,-0.6 2,-1.5 z m -1.4,-2.3 c 0,-1 -0.7,-1.8 -2,-1.8 -1.2,0 -1.9,0.9 -2,1.8 z m 8.7,4.3 V 81.1 h 6.5 v 1.4 h -5 v 3.4 h 4.5 v 1.4 h -4.5 v 4.5 h -1.5 z m 14.6,-2 c -0.4,1.3 -1.6,2.3 -3.2,2.3 -1.9,0 -3.6,-1.4 -3.6,-3.9 0,-2.3 1.6,-3.8 3.4,-3.8 2.2,0 3.5,1.5 3.5,3.8 v 0.5 h -5.4 c 0,1.3 1,2.2 2.2,2.2 1.2,0 1.8,-0.6 2,-1.5 z m -1.4,-2.3 c 0,-1 -0.7,-1.8 -2,-1.8 -1.2,0 -1.9,0.9 -2,1.8 z m 5.7,0.2 1.9,-0.3 c 0.4,-0.1 0.6,-0.3 0.6,-0.5 0,-0.7 -0.5,-1.3 -1.6,-1.3 -1,0 -1.5,0.6 -1.6,1.5 l -1.4,-0.3 c 0.2,-1.4 1.4,-2.3 3,-2.3 2.2,0 3,1.2 3,2.6 v 3.6 c 0,0.6 0.1,1 0.1,1.2 h -1.4 c 0,-0.2 -0.1,-0.5 -0.1,-1 -0.3,0.5 -1,1.2 -2.3,1.2 -1.5,0 -2.4,-1 -2.4,-2.2 0.1,-1.3 1,-2 2.2,-2.2 z m 2.5,1.1 v -0.3 l -2.2,0.3 c -0.6,0.1 -1.1,0.4 -1.1,1.1 0,0.5 0.4,1 1.2,1 1.2,0 2.1,-0.6 2.1,-2.1 z m 6.3,-4.2 h 1.6 v 1.3 h -1.6 v 3.8 c 0,0.7 0.3,1 1,1 0.2,0 0.4,0 0.6,-0.1 v 1.2 c -0.1,0 -0.5,0.1 -1,0.1 -1.2,0 -2,-0.8 -2,-2.1 v -4 h -1.4 v -1.3 h 0.4 c 0.8,0 1.1,-0.5 1.1,-1.1 v -1.1 h 1.3 z m 6.8,7.5 c -1.7,0 -2.7,-1.3 -2.7,-2.9 v -4.5 h 1.4 v 4.3 c 0,1 0.4,1.9 1.6,1.9 1.1,0 1.7,-0.8 1.7,-1.8 v -4.3 h 1.4 v 5.9 c 0,0.6 0,1.1 0.1,1.3 h -1.4 c 0,-0.2 -0.1,-0.6 -0.1,-0.9 -0.3,0.6 -1.2,1 -2,1 z m 10.6,-6 h -0.6 c -1.2,0 -2,0.6 -2,2.2 v 3.6 h -1.4 v -7.2 h 1.4 v 1.3 c 0.5,-1.1 1.4,-1.4 2.2,-1.4 h 0.5 V 86 Z m 8.5,3.7 c -0.4,1.3 -1.6,2.3 -3.2,2.3 -1.9,0 -3.6,-1.4 -3.6,-3.9 0,-2.3 1.6,-3.8 3.4,-3.8 2.2,0 3.5,1.5 3.5,3.8 v 0.5 h -5.4 c 0,1.3 1,2.2 2.2,2.2 1.2,0 1.8,-0.6 2,-1.5 z m -1.4,-2.3 c 0,-1 -0.7,-1.8 -2,-1.8 -1.2,0 -1.9,0.9 -2,1.8 z"
     class="st10" />
  <path
     style="fill:none;stroke:#404040;stroke-width:4;stroke-linecap:round;stroke-linejoin:round;stroke-miterlimit:10"
     inkscape:connector-curvature="0"
     id="path24"
     d="m 466.30712,153.9 v -23.5 m 10.9,14.8 -10.9,10.9 -10.9,-10.9"
     class="st11" />
  <path
     style="fill:#999999"
     inkscape:connector-curvature="0"
     id="path28"
     d="m 421.3174,309.67924 c 2,0 3.2,1.2 3.2,2.9 0,1.1 -0.7,2 -1.6,2.3 1.2,0.3 1.9,1.4 1.9,2.6 0,1.7 -1.3,2.9 -3.3,2.9 h -3.7 v -10.7 z m -0.1,4.7 c 1.2,0 1.9,-0.7 1.9,-1.7 0,-1 -0.7,-1.7 -1.9,-1.7 h -1.8 v 3.4 z m 0.2,4.7 c 1.2,0 2,-0.7 2,-1.7 0,-1 -0.6,-1.7 -1.9,-1.7 h -2.1 v 3.4 z m 12.4,-0.8 c -0.4,1.3 -1.6,2.3 -3.2,2.3 -1.9,0 -3.6,-1.4 -3.6,-3.9 0,-2.3 1.6,-3.8 3.4,-3.8 2.2,0 3.5,1.5 3.5,3.8 v 0.4 h -5.5 c 0,1.3 1,2.2 2.2,2.2 1.2,0 1.8,-0.6 2,-1.5 z m -1.4,-2.3 c 0,-1 -0.7,-1.8 -2,-1.8 -1.2,0 -1.9,0.9 -2,1.8 z m 5.9,-1.6 v 5.9 h -1.5 v -5.9 h -1.3 v -1.3 h 1.3 v -1.2 c 0,-1.6 1.1,-2.5 2.4,-2.5 0.5,0 0.8,0.1 0.8,0.2 v 1.3 c -0.1,0 -0.3,-0.1 -0.6,-0.1 -0.5,0 -1.1,0.2 -1.1,1.2 v 1.1 h 1.7 v 1.3 z m 10.5,2.3 c 0,2.2 -1.5,3.8 -3.7,3.8 -2.2,0 -3.7,-1.6 -3.7,-3.8 0,-2.2 1.5,-3.8 3.7,-3.8 2.2,0 3.7,1.6 3.7,3.8 z m -1.4,0 c 0,-1.7 -1.1,-2.6 -2.2,-2.6 -1.1,0 -2.2,0.9 -2.2,2.6 0,1.7 1.1,2.6 2.2,2.6 1.1,0 2.2,-0.9 2.2,-2.6 z m 8,-2.1 h -0.6 c -1.2,0 -2,0.6 -2,2.2 v 3.6 h -1.4 v -7.2 h 1.4 v 1.3 c 0.5,-1.1 1.4,-1.4 2.2,-1.4 h 0.5 v 1.5 z m 8.4,3.7 c -0.4,1.3 -1.6,2.3 -3.2,2.3 -1.9,0 -3.6,-1.4 -3.6,-3.9 0,-2.3 1.6,-3.8 3.4,-3.8 2.2,0 3.5,1.5 3.5,3.8 v 0.4 h -5.5 c 0,1.3 1,2.2 2.2,2.2 1.2,0 1.8,-0.6 2,-1.5 z m -1.4,-2.3 c 0,-1 -0.7,-1.8 -2,-1.8 -1.2,0 -1.9,0.9 -2,1.8 z m 18.7,4.3 v -8.3 l -3.6,8.3 h -1.3 l -3.6,-8.3 v 8.3 h -1.5 v -10.6 h 2 l 3.7,8.7 3.8,-8.7 h 2 v 10.6 z m 11.1,-2 c -0.4,1.3 -1.6,2.3 -3.2,2.3 -1.9,0 -3.6,-1.4 -3.6,-3.9 0,-2.3 1.6,-3.8 3.4,-3.8 2.2,0 3.5,1.5 3.5,3.8 v 0.4 h -5.4 c 0,1.3 1,2.2 2.2,2.2 1.2,0 1.8,-0.6 2,-1.5 z m -1.5,-2.3 c 0,-1 -0.7,-1.8 -2,-1.8 -1.2,0 -1.9,0.9 -2,1.8 z m 8.1,-1.4 h -0.6 c -1.2,0 -2,0.6 -2,2.2 v 3.6 h -1.4 v -7.2 h 1.4 v 1.3 c 0.5,-1.1 1.4,-1.4 2.2,-1.4 h 0.5 v 1.5 z m 3,5.8 c 0.1,1 0.9,1.8 2,1.8 1.5,0 2.2,-0.8 2.2,-2.3 v -1 c -0.3,0.7 -1.1,1.2 -2.2,1.2 -1.9,0 -3.3,-1.5 -3.3,-3.5 0,-1.9 1.3,-3.5 3.3,-3.5 1.1,0 1.9,0.4 2.2,1.1 v -1 h 1.4 v 6.7 c 0,1.8 -0.9,3.6 -3.6,3.6 -1.8,0 -3.1,-1.1 -3.3,-2.7 z m 4.2,-3.9 c 0,-1.4 -0.8,-2.3 -2.1,-2.3 -1.2,0 -2.1,0.9 -2.1,2.3 0,1.4 0.8,2.3 2.1,2.3 1.3,0 2.1,-0.9 2.1,-2.3 z m 5,-7.1 c 0.6,0 1,0.4 1,1 0,0.6 -0.4,1 -1,1 -0.6,0 -1,-0.5 -1,-1 0,-0.6 0.5,-1 1,-1 z m -0.7,10.9 v -7.2 h 1.4 v 7.2 z m 6,0 h -1.4 v -7.2 h 1.4 v 1 c 0.5,-0.9 1.4,-1.2 2.2,-1.2 1.7,0 2.6,1.2 2.6,2.9 v 4.6 h -1.4 v -4.3 c 0,-1 -0.4,-1.8 -1.7,-1.8 -1.1,0 -1.7,0.9 -1.7,2 z m 8.6,0.1 c 0.1,1 0.9,1.8 2,1.8 1.5,0 2.2,-0.8 2.2,-2.3 v -1 c -0.3,0.7 -1.1,1.2 -2.2,1.2 -1.9,0 -3.3,-1.5 -3.3,-3.5 0,-1.9 1.3,-3.5 3.3,-3.5 1.1,0 1.9,0.4 2.2,1.1 v -1 h 1.4 v 6.7 c 0,1.8 -0.9,3.6 -3.6,3.6 -1.8,0 -3.1,-1.1 -3.3,-2.7 z m 4.2,-3.9 c 0,-1.4 -0.8,-2.3 -2.1,-2.3 -1.2,0 -2.1,0.9 -2.1,2.3 0,1.4 0.8,2.3 2.1,2.3 1.3,0 2.1,-0.9 2.1,-2.3 z"
     class="st25" />
  <g
     id="git_x5F_pull_x5F_3_1_"
     transform="translate(-128.79288,-248.8)">
    <path
       style="fill:#b3e3ff;stroke:#404040;stroke-width:4;stroke-linejoin:round;stroke-miterlimit:10"
       inkscape:connector-curvature="0"
       id="path31"
       d="m 547.5,849.4 h 96.2 v 50 h -96.2 z"
       class="st23" />
    <path
       style="fill:#404040"
       inkscape:connector-curvature="0"
       id="path33"
       d="m 582.2,880.4 v -8.3 l -3.6,8.3 h -1.3 l -3.6,-8.3 v 8.3 h -1.5 v -10.6 h 2 l 3.7,8.7 3.8,-8.7 h 2 v 10.6 z m 6.4,-4.1 1.9,-0.3 c 0.4,-0.1 0.6,-0.3 0.6,-0.5 0,-0.7 -0.5,-1.3 -1.6,-1.3 -1,0 -1.5,0.6 -1.6,1.5 l -1.4,-0.3 c 0.2,-1.4 1.4,-2.3 3,-2.3 2.2,0 3,1.2 3,2.6 v 3.6 c 0,0.6 0.1,1 0.1,1.2 h -1.4 c 0,-0.2 -0.1,-0.5 -0.1,-1 -0.3,0.5 -1,1.2 -2.3,1.2 -1.5,0 -2.4,-1 -2.4,-2.2 0,-1.3 1,-2 2.2,-2.2 z m 2.5,1 V 877 l -2.2,0.3 c -0.6,0.1 -1,0.4 -1,1.1 0,0.5 0.4,1 1.2,1 1.1,0.1 2,-0.5 2,-2.1 z m 5,0.8 c 0.1,0.8 0.7,1.3 1.7,1.3 0.8,0 1.2,-0.4 1.2,-1 0,-0.4 -0.3,-0.8 -0.9,-0.9 l -1.2,-0.3 c -1.1,-0.2 -1.8,-1 -1.8,-2 0,-1.2 1.2,-2.3 2.6,-2.3 2,0 2.6,1.3 2.7,1.9 l -1.2,0.5 c -0.1,-0.4 -0.4,-1.2 -1.5,-1.2 -0.7,0 -1.2,0.5 -1.2,1 0,0.4 0.3,0.8 0.8,0.9 l 1.2,0.3 c 1.3,0.3 2,1.1 2,2.1 0,1 -0.9,2.2 -2.6,2.2 -2,0 -2.8,-1.3 -2.9,-2.1 z m 8.8,-4.9 h 1.6 v 1.3 h -1.6 v 3.8 c 0,0.7 0.3,1 1,1 0.2,0 0.4,0 0.6,-0.1 v 1.2 c -0.1,0 -0.5,0.1 -1,0.1 -1.2,0 -2,-0.8 -2,-2.1 v -4 h -1.4 v -1.3 h 0.4 c 0.8,0 1.1,-0.5 1.1,-1.1 v -1.2 h 1.3 z m 10.4,5.2 c -0.4,1.3 -1.6,2.3 -3.2,2.3 -1.9,0 -3.6,-1.4 -3.6,-3.9 0,-2.3 1.6,-3.8 3.4,-3.8 2.2,0 3.5,1.5 3.5,3.8 v 0.4 H 610 c 0,1.3 1,2.2 2.2,2.2 1.2,0 1.8,-0.6 2,-1.5 z m -1.5,-2.3 c 0,-1 -0.7,-1.8 -2,-1.8 -1.2,0 -1.9,0.9 -2,1.8 z m 8.1,-1.5 h -0.6 c -1.2,0 -2,0.6 -2,2.2 v 3.6 h -1.4 v -7.2 h 1.4 v 1.3 c 0.5,-1.1 1.4,-1.4 2.2,-1.4 h 0.5 v 1.5 z"
       class="st10" />
    <path
       style="fill:none;stroke:#404040;stroke-width:4;stroke-linecap:round;stroke-linejoin:round;stroke-miterlimit:10"
       inkscape:connector-curvature="0"
       id="path35"
       d="m 595.6,805.9 v 23.5 m -10.9,-14.8 10.9,-10.8 10.8,10.8 m 9,-51 h -83 41.2 m -154.9,41 c 0,22.6 -18.4,41 -41,41 H 175.6 m 243.1,-41 c 0,-22.6 18.4,-41 41,-41 h 30.7"
       class="st11" />
    <circle
       style="fill:#ffffff;stroke:#404040;stroke-width:4;stroke-linecap:round;stroke-linejoin:round;stroke-miterlimit:10"
       id="circle37"
       r="21"
       cy="845.59998"
       cx="321.10001"
       class="st4" />
    <circle
       style="fill:#ffffff;stroke:#404040;stroke-width:4;stroke-linecap:round;stroke-linejoin:round;stroke-miterlimit:10"
       id="circle39"
       r="21"
       cy="845.59998"
       cx="237.89999"
       class="st4" />
    <circle
       style="fill:#59afe1;stroke:#404040;stroke-width:4;stroke-linejoin:round;stroke-miterlimit:10"
       id="circle41"
       r="21"
       cy="763.59998"
       cx="594.59998"
       class="st29" />
    <circle
       style="fill:#ffffff;stroke:#404040;stroke-width:4;stroke-linecap:round;stroke-linejoin:round;stroke-miterlimit:10"
       id="circle43"
       r="21"
       cy="763.59998"
       cx="511.39999"
       class="st4" />
    <circle
       style="fill:#ffffff;stroke:#404040;stroke-width:4;stroke-linecap:round;stroke-linejoin:round;stroke-miterlimit:10"
       id="circle45"
       r="21"
       cy="845.59998"
       cx="154.60001"
       class="st4" />
    <path
       style="fill:none;stroke:#404040;stroke-width:4;stroke-linecap:round;stroke-linejoin:round;stroke-miterlimit:10"
       inkscape:connector-curvature="0"
       id="path47"
       d="m 594.6,720.9 v -23.5 m 10.9,14.8 -10.9,10.9 -10.8,-10.9"
       class="st11" />
  </g>
  <path
     style="fill:#999999"
     inkscape:connector-curvature="0"
     id="path50"
     d="m 336.65903,352.70445 h -4.7 l -1.1,3 h -1.6 l 4.2,-10.6 h 1.7 l 4.2,10.6 h -1.6 z m -4.1,-1.4 h 3.7 l -1.8,-4.8 z m 10.9,-1.6 v 5.9 h -1.5 v -5.9 h -1.3 v -1.3 h 1.3 v -1.2 c 0,-1.6 1.1,-2.5 2.4,-2.5 0.5,0 0.8,0.1 0.8,0.2 v 1.3 c -0.1,0 -0.3,-0.1 -0.6,-0.1 -0.5,0 -1.1,0.2 -1.1,1.2 v 1.1 h 1.7 v 1.3 z m 5.9,-1.3 h 1.6 v 1.3 h -1.6 v 3.8 c 0,0.7 0.3,1 1,1 0.2,0 0.4,0 0.6,-0.1 v 1.2 c -0.1,0 -0.5,0.1 -1,0.1 -1.2,0 -2,-0.8 -2,-2.1 v -4 h -1.4 v -1.3 h 0.4 c 0.8,0 1.1,-0.5 1.1,-1.1 v -1.2 h 1.3 z m 10.4,5.2 c -0.4,1.3 -1.6,2.3 -3.2,2.3 -1.9,0 -3.6,-1.4 -3.6,-3.9 0,-2.3 1.6,-3.8 3.4,-3.8 2.2,0 3.5,1.5 3.5,3.8 v 0.4 h -5.4 c 0,1.3 1,2.2 2.2,2.2 1.2,0 1.8,-0.6 2,-1.5 z m -1.5,-2.3 c 0,-1 -0.7,-1.8 -2,-1.8 -1.2,0 -1.9,0.9 -2,1.8 z m 8.1,-1.4 h -0.6 c -1.2,0 -2,0.6 -2,2.2 v 3.6 h -1.4 v -7.2 h 1.4 v 1.3 c 0.5,-1.1 1.4,-1.4 2.2,-1.4 h 0.5 v 1.5 z m 8.5,1.6 1.9,-0.3 c 0.4,-0.1 0.6,-0.3 0.6,-0.5 0,-0.7 -0.5,-1.3 -1.6,-1.3 -1,0 -1.5,0.6 -1.6,1.5 l -1.4,-0.3 c 0.2,-1.4 1.4,-2.3 3,-2.3 2.2,0 3,1.2 3,2.6 v 3.6 c 0,0.6 0.1,1 0.1,1.2 h -1.4 c 0,-0.2 -0.1,-0.5 -0.1,-1 -0.3,0.5 -1,1.2 -2.3,1.2 -1.5,0 -2.4,-1 -2.4,-2.2 0,-1.3 0.9,-2 2.2,-2.2 z m 2.5,1.1 v -0.3 l -2.2,0.3 c -0.6,0.1 -1.1,0.4 -1.1,1.1 0,0.5 0.4,1 1.2,1 1.1,0 2.1,-0.6 2.1,-2.1 z m 9,3 v -10.6 h 6.5 v 1.4 h -5 v 3.4 h 4.5 v 1.4 h -4.6 v 4.5 h -1.4 z m 10,-4.1 1.9,-0.3 c 0.4,-0.1 0.6,-0.3 0.6,-0.5 0,-0.7 -0.5,-1.3 -1.6,-1.3 -1,0 -1.5,0.6 -1.6,1.5 l -1.4,-0.3 c 0.2,-1.4 1.4,-2.3 3,-2.3 2.2,0 3,1.2 3,2.6 v 3.6 c 0,0.6 0.1,1 0.1,1.2 h -1.4 c 0,-0.2 -0.1,-0.5 -0.1,-1 -0.3,0.5 -1,1.2 -2.3,1.2 -1.5,0 -2.4,-1 -2.4,-2.2 0.1,-1.3 1,-2 2.2,-2.2 z m 2.6,1.1 v -0.3 l -2.2,0.3 c -0.6,0.1 -1,0.4 -1,1.1 0,0.5 0.4,1 1.2,1 1,0 2,-0.6 2,-2.1 z m 4.9,0.7 c 0.1,0.8 0.7,1.3 1.7,1.3 0.8,0 1.2,-0.4 1.2,-1 0,-0.4 -0.3,-0.8 -0.9,-0.9 l -1.2,-0.3 c -1.1,-0.2 -1.8,-1 -1.8,-2 0,-1.2 1.2,-2.3 2.6,-2.3 2,0 2.6,1.3 2.7,1.9 l -1.2,0.5 c -0.1,-0.4 -0.4,-1.2 -1.5,-1.2 -0.7,0 -1.2,0.5 -1.2,1 0,0.4 0.3,0.8 0.8,0.9 l 1.2,0.3 c 1.3,0.3 2,1.1 2,2.1 0,1 -0.9,2.2 -2.6,2.2 -2,0 -2.8,-1.3 -2.9,-2.1 z m 8.8,-4.9 h 1.6 v 1.3 h -1.6 v 3.8 c 0,0.7 0.3,1 1,1 0.2,0 0.4,0 0.6,-0.1 v 1.2 c -0.1,0 -0.5,0.1 -1,0.1 -1.2,0 -2,-0.8 -2,-2.1 v -4 h -1.4 v -1.3 h 0.4 c 0.8,0 1.1,-0.5 1.1,-1.1 v -1.2 h 1.3 z m 3.7,3.6 v -1.2 h 4.1 v 1.2 z m 6.8,3.6 v -10.6 h 6.5 v 1.4 h -5 v 3.4 h 4.5 v 1.4 h -4.5 v 4.5 h -1.5 z m 15.1,-3.6 c 0,2.2 -1.5,3.8 -3.7,3.8 -2.2,0 -3.7,-1.6 -3.7,-3.8 0,-2.2 1.5,-3.8 3.7,-3.8 2.2,0 3.7,1.6 3.7,3.8 z m -1.4,0 c 0,-1.7 -1.1,-2.6 -2.2,-2.6 -1.1,0 -2.2,0.9 -2.2,2.6 0,1.7 1.1,2.6 2.2,2.6 1.1,0 2.2,-0.9 2.2,-2.6 z m 8,-2.1 h -0.6 c -1.2,0 -2,0.6 -2,2.2 v 3.6 h -1.4 v -7.2 h 1.4 v 1.3 c 0.5,-1.1 1.4,-1.4 2.2,-1.4 h 0.5 v 1.5 z m 7.9,-1.5 1.9,5.4 1.6,-5.4 h 1.5 l -2.3,7.2 h -1.5 l -1.9,-5.5 -1.9,5.5 h -1.5 l -2.4,-7.2 h 1.5 l 1.6,5.4 1.9,-5.4 z m 8.8,3.1 1.9,-0.3 c 0.4,-0.1 0.6,-0.3 0.6,-0.5 0,-0.7 -0.5,-1.3 -1.6,-1.3 -1,0 -1.5,0.6 -1.6,1.5 l -1.4,-0.3 c 0.2,-1.4 1.4,-2.3 3,-2.3 2.2,0 3,1.2 3,2.6 v 3.6 c 0,0.6 0.1,1 0.1,1.2 h -1.4 c 0,-0.2 -0.1,-0.5 -0.1,-1 -0.3,0.5 -1,1.2 -2.3,1.2 -1.5,0 -2.4,-1 -2.4,-2.2 0,-1.3 1,-2 2.2,-2.2 z m 2.5,1.1 v -0.3 l -2.2,0.3 c -0.6,0.1 -1.1,0.4 -1.1,1.1 0,0.5 0.4,1 1.2,1 1.2,0 2.1,-0.6 2.1,-2.1 z m 8.4,-2.7 h -0.6 c -1.2,0 -2,0.6 -2,2.2 v 3.6 h -1.4 v -7.2 h 1.4 v 1.3 c 0.5,-1.1 1.4,-1.4 2.2,-1.4 h 0.5 v 1.5 z m 7.2,4.7 c -0.3,0.7 -1.1,1.3 -2.2,1.3 -2.1,0 -3.4,-1.7 -3.4,-3.8 0,-2 1.4,-3.8 3.4,-3.8 1.3,0 2,0.6 2.2,1.2 v -4.7 h 1.4 v 9.5 c 0,0.7 0.1,1.2 0.1,1.3 h -1.4 c 0,-0.2 -0.1,-0.5 -0.1,-1 z m -2.1,0 c 1.3,0 2.1,-1.1 2.1,-2.6 0,-1.5 -0.8,-2.5 -2.1,-2.5 -1.3,0 -2.1,1 -2.1,2.5 0,1.5 0.7,2.6 2.1,2.6 z m 21.3,1 v -8.3 l -3.6,8.3 h -1.3 l -3.6,-8.3 v 8.3 h -1.5 v -10.6 h 2 l 3.7,8.7 3.8,-8.7 h 2 v 10.6 z m 11,-2 c -0.4,1.3 -1.6,2.3 -3.2,2.3 -1.9,0 -3.6,-1.4 -3.6,-3.9 0,-2.3 1.6,-3.8 3.4,-3.8 2.2,0 3.5,1.5 3.5,3.8 v 0.4 h -5.4 c 0,1.3 1,2.2 2.2,2.2 1.2,0 1.8,-0.6 2,-1.5 z m -1.4,-2.3 c 0,-1 -0.7,-1.8 -2,-1.8 -1.2,0 -1.9,0.9 -2,1.8 z m 8,-1.4 h -0.6 c -1.2,0 -2,0.6 -2,2.2 v 3.6 h -1.4 v -7.2 h 1.4 v 1.3 c 0.5,-1.1 1.4,-1.4 2.2,-1.4 h 0.5 v 1.5 z m 3,5.8 c 0.1,1 0.9,1.8 2,1.8 1.5,0 2.2,-0.8 2.2,-2.3 v -1 c -0.3,0.7 -1.1,1.2 -2.2,1.2 -1.9,0 -3.3,-1.5 -3.3,-3.5 0,-1.9 1.3,-3.5 3.3,-3.5 1.1,0 1.9,0.4 2.2,1.1 v -1 h 1.4 v 6.7 c 0,1.8 -0.9,3.6 -3.6,3.6 -1.8,0 -3.1,-1.1 -3.3,-2.7 z m 4.3,-3.9 c 0,-1.4 -0.8,-2.3 -2.1,-2.3 -1.2,0 -2.1,0.9 -2.1,2.3 0,1.4 0.8,2.3 2.1,2.3 1.2,0 2.1,-0.9 2.1,-2.3 z m 10.6,1.8 c -0.4,1.3 -1.6,2.3 -3.2,2.3 -1.9,0 -3.6,-1.4 -3.6,-3.9 0,-2.3 1.6,-3.8 3.4,-3.8 2.2,0 3.5,1.5 3.5,3.8 v 0.4 h -5.4 c 0,1.3 1,2.2 2.2,2.2 1.2,0 1.8,-0.6 2,-1.5 z m -1.4,-2.3 c 0,-1 -0.7,-1.8 -2,-1.8 -1.2,0 -1.9,0.9 -2,1.8 z"
     class="st25" />
  <path
     style="fill:#b18be8;stroke:#404040;stroke-width:4;stroke-linecap:round;stroke-linejoin:round;stroke-miterlimit:10"
     inkscape:connector-curvature="0"
     id="path52"
     d="m 396.00712,376.6 h 141.6 v 50 h -141.6 z"
     class="st12" />
  <path
     style="fill:#404040"
     inkscape:connector-curvature="0"
     id="path54"
     d="m 423.80712,399.9 c -0.1,-0.8 -0.8,-1.8 -2.2,-1.8 -1.2,0 -2.1,0.8 -2.1,1.8 0,0.8 0.5,1.4 1.4,1.5 l 1.6,0.3 c 1.8,0.4 2.8,1.5 2.8,3 0,1.6 -1.4,3.1 -3.7,3.1 -2.6,0 -3.8,-1.6 -4,-3.2 l 1.4,-0.4 c 0.1,1.2 0.9,2.3 2.5,2.3 1.5,0 2.2,-0.8 2.2,-1.7 0,-0.8 -0.5,-1.4 -1.6,-1.6 l -1.5,-0.3 c -1.5,-0.3 -2.6,-1.3 -2.6,-2.9 0,-1.7 1.5,-3.2 3.5,-3.2 2.4,0 3.4,1.5 3.6,2.6 z m 10.7,4.1 c 0,2.2 -1.5,3.8 -3.7,3.8 -2.2,0 -3.7,-1.6 -3.7,-3.8 0,-2.2 1.5,-3.8 3.7,-3.8 2.2,0 3.7,1.6 3.7,3.8 z m -1.5,0 c 0,-1.7 -1.1,-2.6 -2.2,-2.6 -1.1,0 -2.2,0.9 -2.2,2.6 0,1.7 1.1,2.6 2.2,2.6 1.1,0 2.2,-0.9 2.2,-2.6 z m 4,3.6 v -7.2 h 1.3 v 1 c 0.5,-0.8 1.4,-1.2 2.2,-1.2 0.9,0 1.8,0.4 2.2,1.4 0.6,-1 1.5,-1.4 2.4,-1.4 1.3,0 2.5,0.9 2.5,2.7 v 4.7 h -1.4 v -4.5 c 0,-0.9 -0.5,-1.6 -1.5,-1.6 -1,0 -1.7,0.8 -1.7,1.8 v 4.4 h -1.4 v -4.5 c 0,-0.9 -0.4,-1.6 -1.5,-1.6 -1,0 -1.7,0.8 -1.7,1.8 v 4.3 h -1.4 z m 19.9,-2 c -0.4,1.3 -1.6,2.3 -3.2,2.3 -1.9,0 -3.6,-1.4 -3.6,-3.9 0,-2.3 1.6,-3.8 3.4,-3.8 2.2,0 3.5,1.5 3.5,3.8 v 0.4 h -5.4 c 0,1.3 1,2.2 2.2,2.2 1.2,0 1.8,-0.6 2,-1.5 z m -1.4,-2.3 c 0,-1 -0.7,-1.8 -2,-1.8 -1.2,0 -1.9,0.9 -2,1.8 z m 8.6,4.3 V 397 h 6.5 v 1.4 h -5 v 3.4 h 4.5 v 1.4 h -4.5 v 4.5 h -1.5 z m 14.7,-2 c -0.4,1.3 -1.6,2.3 -3.2,2.3 -1.9,0 -3.6,-1.4 -3.6,-3.9 0,-2.3 1.6,-3.8 3.4,-3.8 2.2,0 3.5,1.5 3.5,3.8 v 0.4 h -5.4 c 0,1.3 1,2.2 2.2,2.2 1.2,0 1.8,-0.6 2,-1.5 z m -1.5,-2.3 c 0,-1 -0.7,-1.8 -2,-1.8 -1.2,0 -1.9,0.9 -2,1.8 z m 5.8,0.2 1.9,-0.3 c 0.4,-0.1 0.6,-0.3 0.6,-0.5 0,-0.7 -0.5,-1.3 -1.6,-1.3 -1,0 -1.5,0.6 -1.6,1.5 l -1.4,-0.3 c 0.2,-1.4 1.4,-2.3 3,-2.3 2.2,0 3,1.2 3,2.6 v 3.6 c 0,0.6 0.1,1 0.1,1.2 h -1.4 c 0,-0.2 -0.1,-0.5 -0.1,-1 -0.3,0.5 -1,1.2 -2.3,1.2 -1.5,0 -2.4,-1 -2.4,-2.2 0,-1.3 1,-2 2.2,-2.2 z m 2.5,1 v -0.3 l -2.2,0.3 c -0.6,0.1 -1.1,0.4 -1.1,1.1 0,0.5 0.4,1 1.2,1 1.2,0.1 2.1,-0.5 2.1,-2.1 z m 6.2,-4.1 h 1.6 v 1.3 h -1.6 v 3.8 c 0,0.7 0.3,1 1,1 0.2,0 0.4,0 0.6,-0.1 v 1.2 c -0.1,0 -0.5,0.1 -1,0.1 -1.2,0 -2,-0.8 -2,-2.1 v -4 h -1.4 v -1.3 h 0.4 c 0.8,0 1.1,-0.5 1.1,-1.1 V 398 h 1.3 z m 6.9,7.5 c -1.7,0 -2.7,-1.3 -2.7,-2.9 v -4.5 h 1.4 v 4.3 c 0,1 0.4,1.9 1.6,1.9 1.1,0 1.7,-0.8 1.7,-1.8 v -4.4 h 1.4 v 5.9 c 0,0.6 0,1.1 0.1,1.3 h -1.4 c 0,-0.2 -0.1,-0.6 -0.1,-0.9 -0.3,0.7 -1.2,1.1 -2,1.1 z m 10.6,-6.1 h -0.6 c -1.2,0 -2,0.6 -2,2.2 v 3.6 h -1.4 v -7.2 h 1.4 v 1.3 c 0.5,-1.1 1.4,-1.4 2.2,-1.4 h 0.5 v 1.5 z m 8.4,3.8 c -0.4,1.3 -1.6,2.3 -3.2,2.3 -1.9,0 -3.6,-1.4 -3.6,-3.9 0,-2.3 1.6,-3.8 3.4,-3.8 2.2,0 3.5,1.5 3.5,3.8 v 0.4 h -5.4 c 0,1.3 1,2.2 2.2,2.2 1.2,0 1.8,-0.6 2,-1.5 z m -1.4,-2.3 c 0,-1 -0.7,-1.8 -2,-1.8 -1.2,0 -1.9,0.9 -2,1.8 z"
     class="st10" />
</svg>
